<!-- icon666.com - MILLIONS vector ICONS FREE --><svg version="1.1" id="Layer_1" xmlns="http://www.w3.org/2000/svg" xmlns:xlink="http://www.w3.org/1999/xlink" x="0px" y="0px" viewBox="0 0 297 297" style="enable-background:new 0 0 297 297;" xml:space="preserve"><g><g><g><g><g><g><g><circle style="fill:#5E4534;" cx="148.5" cy="148.5" r="148.5"/></g></g></g></g></g></g><path style="fill:#51392A;" d="M296.888,153.996L193.536,50.782l-141.982,170.5l72.967,73.781 c7.807,1.268,15.814,1.937,23.978,1.937C228.673,297,293.996,233.463,296.888,153.996z"/><g><g><path style="fill:#FFCF6D;" d="M107.089,131.613h82.821c2.849,0,5.158-2.309,5.158-5.158V54.45c0-2.849-2.309-5.158-5.158-5.158 h-82.821c-2.849,0-5.158,2.309-5.158,5.158v72.006C101.932,129.304,104.241,131.613,107.089,131.613z"/></g></g><g><g><path style="fill:#FFCF6D;" d="M107.089,49.292c-2.849,0-5.158,2.309-5.158,5.158v72.006c0,2.849,2.309,5.158,5.158,5.158h41.578 V49.292H107.089z"/></g><g><path style="fill:#F9B65F;" d="M189.911,49.292h-41.244v82.321h41.244c2.849,0,5.158-2.309,5.158-5.158V54.45 C195.068,51.601,192.759,49.292,189.911,49.292z"/></g></g><g><g><g><path style="fill:#F9B65F;" d="M158.591,223.225h82.821c2.848,0,5.158-2.309,5.158-5.158v-72.006 c0-2.848-2.309-5.158-5.158-5.158h-82.821c-2.849,0-5.158,2.309-5.158,5.158v72.006 C153.433,220.916,155.742,223.225,158.591,223.225z"/></g></g><g><g><path style="fill:#FFCF6D;" d="M55.588,223.225h82.821c2.848,0,5.158-2.309,5.158-5.158v-72.006 c0-2.848-2.309-5.158-5.158-5.158H55.588c-2.849,0-5.158,2.309-5.158,5.158v72.006C50.43,220.916,52.739,223.225,55.588,223.225 z"/></g></g></g><g><g><g><polygon style="fill:#B54552;" points="211.778,164.521 211.778,199.729 223.553,199.729 223.553,164.521 229.441,164.521 217.665,152.745 205.89,164.521 "/></g></g><g><g><polygon style="fill:#B54552;" points="176.45,164.521 176.45,199.729 188.226,199.729 188.226,164.521 194.114,164.521 182.338,152.745 170.562,164.521 "/></g></g><g><g><rect x="168.778" y="205.617" style="fill:#B54552;" width="62.448" height="5.888"/></g></g></g><g><g><g><polygon style="fill:#C64B55;" points="108.774,164.521 108.774,199.729 120.55,199.729 120.55,164.521 126.438,164.521 114.662,152.745 102.886,164.521 "/></g></g><g><g><polygon style="fill:#D95459;" points="73.447,164.521 73.447,199.729 85.222,199.729 85.222,164.521 91.11,164.521 79.335,152.745 67.559,164.521 "/></g></g><g><g><rect x="65.774" y="205.617" style="fill:#D95459;" width="62.448" height="5.888"/></g></g></g><g><path style="fill:#C64B55;" d="M158.495,116.169h-8.33V94.797c7.832-0.832,13.933-7.457,13.933-15.509 c0-4.419-1.838-12.947-4.79-20.209h-4.673l-7.113,7.113h5.974c0.674,0,1.281,0.406,1.539,1.028s0.115,1.339-0.361,1.815 l-9.995,9.995c-0.325,0.325-0.752,0.488-1.178,0.488s-0.853-0.163-1.178-0.488c-0.651-0.65-0.651-1.705,0-2.356l7.151-7.152H143.5 c-0.674,0-1.281-0.406-1.539-1.028s-0.115-1.339,0.361-1.815l7.601-7.601h-12.235c-2.952,7.261-4.79,15.79-4.79,20.209 c0,8.052,6.101,14.678,13.933,15.509v21.372h-8.33c-0.92,0-1.666,0.746-1.666,1.666s0.746,1.666,1.666,1.666h19.991 c0.92,0,1.666-0.746,1.666-1.666C160.161,116.915,159.415,116.169,158.495,116.169z"/></g><g><polygon style="fill:#C64B55;" points="149.925,59.079 148.667,59.079 148.667,60.338 "/></g><g><polygon style="fill:#C64B55;" points="148.667,69.524 148.667,70.333 149.476,69.524 "/></g><g><polygon style="fill:#C64B55;" points="148.667,66.192 148.667,65.049 147.524,66.192 "/></g><g><path style="fill:#C64B55;" d="M144.68,79.031c-0.325,0.325-0.752,0.488-1.178,0.488s-0.853-0.163-1.178-0.488 c-0.651-0.65-0.651-1.705,0-2.356l6.343-6.343v-0.809h-5.165c-0.674,0-1.281-0.406-1.539-1.028s-0.115-1.339,0.361-1.815 l6.343-6.343v-1.258h-10.976c-2.952,7.261-4.79,15.79-4.79,20.209c0,8.052,6.102,14.678,13.933,15.509v21.372h-8.33 c-0.92,0-1.666,0.746-1.666,1.666s0.746,1.666,1.666,1.666h10.162V75.044L144.68,79.031z"/></g><g><path style="fill:#B54552;" d="M158.495,116.169h-8.33V94.797c7.832-0.832,13.933-7.457,13.933-15.509 c0-4.419-1.838-12.948-4.79-20.209h-4.673l-5.97,5.97v1.143h4.831c0.674,0,1.281,0.406,1.539,1.028s0.115,1.339-0.361,1.815 l-6.009,6.009v44.457h9.828c0.92,0,1.666-0.746,1.666-1.666S159.415,116.169,158.495,116.169z"/></g></g></svg>
